<?xml version="1.0" standalone="no"?>
<!DOCTYPE svg PUBLIC "-//W3C//DTD SVG 20010904//EN"
 "http://www.w3.org/TR/2001/REC-SVG-20010904/DTD/svg10.dtd">
<svg version="1.0" xmlns="http://www.w3.org/2000/svg"
 width="512.000000pt" height="512.000000pt" viewBox="0 0 512.000000 512.000000"
 preserveAspectRatio="xMidYMid meet">
<metadata>
Created by potrace 1.14, written by Peter Selinger 2001-2017
</metadata>
<g transform="translate(0.000000,512.000000) scale(0.100000,-0.100000)"
fill="#000000" stroke="none">
<path d="M2366 4574 c-358 -46 -659 -190 -924 -439 -232 -218 -422 -574 -469
-880 -2 -16 -7 -41 -10 -55 -3 -14 -7 -104 -8 -200 -3 -139 1 -197 16 -285 41
-230 121 -434 241 -616 33 -52 61 -99 61 -106 0 -7 4 -10 8 -8 4 3 19 -11 33
-30 39 -51 153 -165 224 -223 218 -180 503 -307 777 -346 l80 -12 3 -132 3
-132 -81 0 -80 0 0 -280 c0 -154 0 -283 0 -287 0 -5 143 -8 318 -8 l317 0 3
288 2 287 -80 0 -81 0 3 132 3 132 80 12 c158 23 297 66 450 139 108 52 274
157 344 219 56 49 210 206 203 206 -4 0 0 6 9 13 24 19 161 234 198 312 61
127 119 307 136 421 4 21 9 50 12 64 3 14 7 99 8 190 3 161 -12 300 -45 425
-6 22 -12 48 -15 57 -11 47 -61 174 -103 258 -121 248 -322 475 -558 632 -175
117 -445 222 -623 243 -25 3 -59 9 -76 12 -57 11 -280 9 -379 -3z m409 -374
c28 -6 62 -13 78 -16 15 -3 67 -19 115 -35 440 -153 761 -546 823 -1009 10
-75 13 -243 5 -290 -2 -14 -7 -47 -11 -75 -8 -59 -37 -165 -71 -256 -21 -57
-107 -219 -134 -252 -142 -177 -221 -252 -360 -341 -328 -210 -748 -249 -1115
-103 -189 75 -352 191 -494 352 -92 105 -206 315 -241 445 -31 115 -55 271
-53 350 1 45 13 194 19 224 31 172 135 410 229 525 77 93 104 123 158 173 34
32 68 56 74 53 7 -2 12 1 10 7 -1 6 27 31 63 55 151 103 320 169 510 197 97
15 320 13 395 -4z"/>
<path d="M2515 3702 c-53 -5 -136 -33 -179 -59 -196 -121 -268 -360 -172 -569
29 -62 169 -208 202 -209 5 -1 36 -9 69 -20 238 -74 499 79 554 325 13 60 7
185 -13 239 -9 24 -13 48 -9 55 3 6 3 8 -2 4 -5 -5 -19 9 -33 30 -95 144 -252
221 -417 204z"/>
<path d="M2235 2613 c-33 -7 -76 -16 -95 -19 -100 -17 -301 -61 -307 -67 -3
-4 -6 -66 -6 -139 l0 -131 39 -34 c142 -125 292 -202 484 -249 103 -25 314
-25 425 0 176 40 332 122 479 249 l38 34 1 132 c0 72 -3 134 -6 138 -6 6 -182
45 -257 57 -19 3 -74 14 -122 24 l-88 19 -23 -31 c-13 -17 -68 -101 -122 -186
-55 -85 -104 -158 -110 -162 -7 -5 -139 178 -156 219 -8 18 -100 152 -107 156
-4 2 -34 -3 -67 -10z"/>
<path d="M414 3091 c-96 -24 -171 -114 -181 -217 -15 -156 117 -287 274 -271
128 13 224 122 220 252 -5 164 -153 276 -313 236z"/>
<path d="M4550 3083 c-119 -51 -180 -169 -150 -293 45 -187 282 -252 416 -114
68 70 88 154 60 248 -32 105 -116 169 -225 172 -40 1 -80 -4 -101 -13z"/>
<path d="M319 2486 c-2 -2 -24 -7 -49 -11 -24 -4 -47 -8 -50 -10 -3 -2 -23 -6
-45 -10 -22 -3 -56 -9 -75 -13 l-35 -8 0 -303 c-1 -211 3 -307 10 -315 7 -6
44 -36 83 -65 40 -30 72 -62 73 -70 0 -9 2 -25 4 -36 2 -11 7 -47 10 -80 4
-33 8 -76 11 -95 2 -19 6 -64 10 -100 3 -36 7 -76 9 -90 2 -14 7 -52 10 -85 3
-33 8 -76 10 -95 3 -19 7 -62 11 -95 3 -33 8 -62 10 -64 6 -7 325 -7 329 -1 1
3 6 37 10 75 3 39 8 84 11 100 2 17 6 53 9 80 3 28 7 70 10 95 3 25 7 65 10
90 2 24 7 67 10 95 3 27 8 70 11 95 11 104 16 126 32 138 9 7 24 18 32 25 8 7
33 26 55 42 22 16 45 34 50 41 11 12 15 608 5 617 -3 2 -59 14 -124 27 -66 12
-124 24 -130 26 -6 2 -42 -45 -81 -106 -38 -60 -72 -110 -75 -110 -7 1 -110
160 -110 171 0 5 -4 9 -9 9 -5 0 -13 9 -16 20 -6 19 -16 25 -26 16z"/>
<path d="M4480 2487 c-3 -3 -23 -8 -45 -12 -22 -3 -78 -14 -125 -23 l-85 -18
0 -303 c-1 -348 -12 -305 104 -391 34 -24 61 -49 62 -55 0 -5 2 -19 3 -30 2
-11 6 -54 11 -95 4 -41 8 -82 10 -90 2 -8 6 -49 10 -90 3 -41 8 -82 10 -90 2
-8 7 -49 10 -90 3 -41 8 -82 10 -90 2 -8 7 -49 10 -90 4 -41 8 -77 11 -79 6
-7 325 -7 329 0 2 3 6 32 10 64 9 92 36 337 40 365 2 14 6 57 10 95 6 76 14
138 20 170 2 11 4 29 4 40 1 13 27 40 72 74 39 30 76 60 83 66 8 8 11 100 11
315 l0 304 -135 27 c-74 16 -135 27 -135 26 -1 -1 -18 -26 -38 -55 -20 -28
-37 -54 -37 -57 0 -8 -64 -105 -70 -105 -3 0 -27 37 -55 82 -53 86 -97 143
-105 135z"/>
<path d="M1205 1560 c10 -85 15 -125 21 -195 3 -38 8 -79 10 -90 2 -10 6 -51
10 -90 3 -38 8 -78 9 -87 2 -9 7 -48 10 -85 4 -37 9 -70 11 -72 6 -7 325 -7
329 -1 2 3 6 39 10 80 4 41 9 83 11 94 2 10 6 51 9 92 6 69 5 73 -17 85 -82
44 -274 182 -353 255 -12 11 -31 28 -43 39 l-23 19 6 -44z"/>
<path d="M3878 1570 c-58 -64 -247 -206 -349 -263 l-44 -25 1 -64 c2 -80 25
-278 33 -279 27 -5 324 -3 327 2 2 4 6 31 8 60 3 30 14 135 25 234 11 99 23
207 26 240 3 33 8 75 10 93 6 39 -2 39 -37 2z"/>
</g>
</svg>
